<mxfile host="" modified="2020-06-03T08:48:11.227Z" agent="5.0 (Macintosh; Intel Mac OS X 10_15_4) AppleWebKit/537.36 (KHTML, like Gecko) Code/1.45.1 Chrome/78.0.3904.130 Electron/7.2.4 Safari/537.36" etag="9iOPjnQIyT05S3alFuFz" version="13.1.3">
    <diagram id="6hGFLwfOUW9BJ-s0fimq" name="Page-1">
        <mxGraphModel dx="1430" dy="1954" grid="1" gridSize="10" guides="1" tooltips="1" connect="1" arrows="1" fold="1" page="1" pageScale="1" pageWidth="827" pageHeight="1169" math="0" shadow="0">
            <root>
                <mxCell id="0"/>
                <mxCell id="1" parent="0"/>
                <mxCell id="7" style="edgeStyle=orthogonalEdgeStyle;rounded=0;orthogonalLoop=1;jettySize=auto;html=1;exitX=0.5;exitY=1;exitDx=0;exitDy=0;" parent="1" source="2" target="3" edge="1">
                    <mxGeometry relative="1" as="geometry"/>
                </mxCell>
                <mxCell id="2" value="&lt;div style=&quot;color: rgb(171 , 178 , 191) ; background-color: rgb(40 , 44 , 52) ; font-family: &amp;#34;monaco&amp;#34; , &amp;#34;menlo&amp;#34; , &amp;#34;monaco&amp;#34; , &amp;#34;courier new&amp;#34; , monospace ; font-size: 13px ; line-height: 20px&quot;&gt;rc &lt;span style=&quot;color: #c678dd&quot;&gt;=&lt;/span&gt; &lt;span style=&quot;color: #61afef&quot;&gt;proto_register&lt;/span&gt;(&lt;span style=&quot;color: #c678dd&quot;&gt;&amp;amp;&lt;/span&gt;tcp_prot, &lt;span style=&quot;color: #d19a66&quot;&gt;1&lt;/span&gt;);&lt;/div&gt;" style="shape=process;whiteSpace=wrap;html=1;backgroundOutline=1;size=0.02702702702702703;" parent="1" vertex="1">
                    <mxGeometry x="105" y="1010" width="300" height="40" as="geometry"/>
                </mxCell>
                <mxCell id="8" style="edgeStyle=orthogonalEdgeStyle;rounded=0;orthogonalLoop=1;jettySize=auto;html=1;exitX=0.5;exitY=1;exitDx=0;exitDy=0;" parent="1" source="3" target="4" edge="1">
                    <mxGeometry relative="1" as="geometry"/>
                </mxCell>
                <mxCell id="3" value="&lt;div style=&quot;color: rgb(171 , 178 , 191) ; background-color: rgb(40 , 44 , 52) ; font-family: &amp;#34;monaco&amp;#34; , &amp;#34;menlo&amp;#34; , &amp;#34;monaco&amp;#34; , &amp;#34;courier new&amp;#34; , monospace ; font-size: 13px ; line-height: 20px&quot;&gt;&lt;div style=&quot;font-family: &amp;#34;monaco&amp;#34; , &amp;#34;menlo&amp;#34; , &amp;#34;monaco&amp;#34; , &amp;#34;courier new&amp;#34; , monospace ; line-height: 20px&quot;&gt;rc &lt;span style=&quot;color: #c678dd&quot;&gt;=&lt;/span&gt; &lt;span style=&quot;color: #61afef&quot;&gt;proto_register&lt;/span&gt;(&lt;span style=&quot;color: #c678dd&quot;&gt;&amp;amp;&lt;/span&gt;udp_prot, &lt;span style=&quot;color: #d19a66&quot;&gt;1&lt;/span&gt;);&lt;/div&gt;&lt;/div&gt;" style="shape=process;whiteSpace=wrap;html=1;backgroundOutline=1;size=0.02702702702702703;" parent="1" vertex="1">
                    <mxGeometry x="105" y="1080" width="300" height="40" as="geometry"/>
                </mxCell>
                <mxCell id="9" style="edgeStyle=orthogonalEdgeStyle;rounded=0;orthogonalLoop=1;jettySize=auto;html=1;exitX=0.5;exitY=1;exitDx=0;exitDy=0;entryX=0.5;entryY=0;entryDx=0;entryDy=0;" parent="1" source="4" target="5" edge="1">
                    <mxGeometry relative="1" as="geometry"/>
                </mxCell>
                <mxCell id="4" value="&lt;div style=&quot;color: rgb(171 , 178 , 191) ; background-color: rgb(40 , 44 , 52) ; font-family: &amp;#34;monaco&amp;#34; , &amp;#34;menlo&amp;#34; , &amp;#34;monaco&amp;#34; , &amp;#34;courier new&amp;#34; , monospace ; font-size: 13px ; line-height: 20px&quot;&gt;&lt;div style=&quot;font-family: &amp;#34;monaco&amp;#34; , &amp;#34;menlo&amp;#34; , &amp;#34;monaco&amp;#34; , &amp;#34;courier new&amp;#34; , monospace ; line-height: 20px&quot;&gt;&lt;div style=&quot;font-family: &amp;#34;monaco&amp;#34; , &amp;#34;menlo&amp;#34; , &amp;#34;monaco&amp;#34; , &amp;#34;courier new&amp;#34; , monospace ; line-height: 20px&quot;&gt;rc &lt;span style=&quot;color: #c678dd&quot;&gt;=&lt;/span&gt; &lt;span style=&quot;color: #61afef&quot;&gt;proto_register&lt;/span&gt;(&lt;span style=&quot;color: #c678dd&quot;&gt;&amp;amp;&lt;/span&gt;raw_prot, &lt;span style=&quot;color: #d19a66&quot;&gt;1&lt;/span&gt;);&lt;/div&gt;&lt;/div&gt;&lt;/div&gt;" style="shape=process;whiteSpace=wrap;html=1;backgroundOutline=1;size=0.02702702702702703;" parent="1" vertex="1">
                    <mxGeometry x="105" y="1150" width="300" height="40" as="geometry"/>
                </mxCell>
                <mxCell id="10" style="edgeStyle=orthogonalEdgeStyle;rounded=0;orthogonalLoop=1;jettySize=auto;html=1;exitX=0.5;exitY=1;exitDx=0;exitDy=0;entryX=0.5;entryY=0;entryDx=0;entryDy=0;" parent="1" source="5" target="6" edge="1">
                    <mxGeometry relative="1" as="geometry"/>
                </mxCell>
                <mxCell id="5" value="&lt;div style=&quot;color: rgb(171 , 178 , 191) ; background-color: rgb(40 , 44 , 52) ; font-family: &amp;#34;monaco&amp;#34; , &amp;#34;menlo&amp;#34; , &amp;#34;monaco&amp;#34; , &amp;#34;courier new&amp;#34; , monospace ; font-size: 13px ; line-height: 20px&quot;&gt;&lt;div style=&quot;font-family: &amp;#34;monaco&amp;#34; , &amp;#34;menlo&amp;#34; , &amp;#34;monaco&amp;#34; , &amp;#34;courier new&amp;#34; , monospace ; line-height: 20px&quot;&gt;&lt;div style=&quot;font-family: &amp;#34;monaco&amp;#34; , &amp;#34;menlo&amp;#34; , &amp;#34;monaco&amp;#34; , &amp;#34;courier new&amp;#34; , monospace ; line-height: 20px&quot;&gt;&lt;div style=&quot;font-family: &amp;#34;monaco&amp;#34; , &amp;#34;menlo&amp;#34; , &amp;#34;monaco&amp;#34; , &amp;#34;courier new&amp;#34; , monospace ; line-height: 20px&quot;&gt;rc &lt;span style=&quot;color: #c678dd&quot;&gt;=&lt;/span&gt; &lt;span style=&quot;color: #61afef&quot;&gt;proto_register&lt;/span&gt;(&lt;span style=&quot;color: #c678dd&quot;&gt;&amp;amp;&lt;/span&gt;ping_prot, &lt;span style=&quot;color: #d19a66&quot;&gt;1&lt;/span&gt;);&lt;/div&gt;&lt;/div&gt;&lt;/div&gt;&lt;/div&gt;" style="shape=process;whiteSpace=wrap;html=1;backgroundOutline=1;size=0.02702702702702703;" parent="1" vertex="1">
                    <mxGeometry x="105" y="1230" width="300" height="40" as="geometry"/>
                </mxCell>
                <mxCell id="16" style="edgeStyle=orthogonalEdgeStyle;rounded=0;orthogonalLoop=1;jettySize=auto;html=1;exitX=0.5;exitY=1;exitDx=0;exitDy=0;" edge="1" parent="1" source="6" target="15">
                    <mxGeometry relative="1" as="geometry"/>
                </mxCell>
                <mxCell id="6" value="&lt;div style=&quot;color: rgb(171 , 178 , 191) ; background-color: rgb(40 , 44 , 52) ; font-family: &amp;#34;monaco&amp;#34; , &amp;#34;menlo&amp;#34; , &amp;#34;monaco&amp;#34; , &amp;#34;courier new&amp;#34; , monospace ; font-size: 13px ; line-height: 20px&quot;&gt;&lt;div style=&quot;font-family: &amp;#34;monaco&amp;#34; , &amp;#34;menlo&amp;#34; , &amp;#34;monaco&amp;#34; , &amp;#34;courier new&amp;#34; , monospace ; line-height: 20px&quot;&gt;&lt;div style=&quot;font-family: &amp;#34;monaco&amp;#34; , &amp;#34;menlo&amp;#34; , &amp;#34;monaco&amp;#34; , &amp;#34;courier new&amp;#34; , monospace ; line-height: 20px&quot;&gt;&lt;div style=&quot;font-family: &amp;#34;monaco&amp;#34; , &amp;#34;menlo&amp;#34; , &amp;#34;monaco&amp;#34; , &amp;#34;courier new&amp;#34; , monospace ; line-height: 20px&quot;&gt;&lt;div style=&quot;font-family: &amp;#34;monaco&amp;#34; , &amp;#34;menlo&amp;#34; , &amp;#34;monaco&amp;#34; , &amp;#34;courier new&amp;#34; , monospace ; line-height: 20px&quot;&gt;&lt;span style=&quot;color: #61afef&quot;&gt;sock_register&lt;/span&gt;(&lt;span style=&quot;color: #c678dd&quot;&gt;&amp;amp;&lt;/span&gt;inet_family_ops);&lt;/div&gt;&lt;/div&gt;&lt;/div&gt;&lt;/div&gt;&lt;/div&gt;" style="shape=process;whiteSpace=wrap;html=1;backgroundOutline=1;size=0.02702702702702703;" parent="1" vertex="1">
                    <mxGeometry x="105" y="1310" width="300" height="40" as="geometry"/>
                </mxCell>
                <mxCell id="13" style="edgeStyle=orthogonalEdgeStyle;rounded=0;orthogonalLoop=1;jettySize=auto;html=1;exitX=0.5;exitY=1;exitDx=0;exitDy=0;" parent="1" source="11" target="12" edge="1">
                    <mxGeometry relative="1" as="geometry"/>
                </mxCell>
                <mxCell id="11" value="&lt;div style=&quot;color: rgb(171 , 178 , 191) ; background-color: rgb(40 , 44 , 52) ; font-family: &amp;#34;monaco&amp;#34; , &amp;#34;menlo&amp;#34; , &amp;#34;monaco&amp;#34; , &amp;#34;courier new&amp;#34; , monospace ; font-size: 13px ; line-height: 20px&quot;&gt;&lt;div&gt;&lt;div style=&quot;font-family: &amp;#34;monaco&amp;#34; , &amp;#34;menlo&amp;#34; , &amp;#34;monaco&amp;#34; , &amp;#34;courier new&amp;#34; , monospace ; line-height: 20px&quot;&gt;&lt;span style=&quot;color: #c678dd&quot;&gt;static&lt;/span&gt; &lt;span style=&quot;color: #c678dd&quot;&gt;struct&lt;/span&gt; list_head &lt;span style=&quot;color: #e06c75&quot;&gt;inetsw&lt;/span&gt;[SOCK_MAX];&lt;/div&gt;&lt;/div&gt;&lt;div style=&quot;font-family: &amp;#34;monaco&amp;#34; , &amp;#34;menlo&amp;#34; , &amp;#34;monaco&amp;#34; , &amp;#34;courier new&amp;#34; , monospace ; line-height: 20px&quot;&gt;&lt;div style=&quot;font-family: &amp;#34;monaco&amp;#34; , &amp;#34;menlo&amp;#34; , &amp;#34;monaco&amp;#34; , &amp;#34;courier new&amp;#34; , monospace ; line-height: 20px&quot;&gt;&lt;div&gt;&lt;span style=&quot;color: #c678dd&quot;&gt;const&lt;/span&gt; &lt;span style=&quot;color: #c678dd&quot;&gt;struct&lt;/span&gt; proto_ops inet_stream_ops &lt;span style=&quot;color: #c678dd&quot;&gt;=&lt;/span&gt; {&lt;/div&gt;&lt;div&gt;&amp;nbsp; &amp;nbsp;.family &lt;span style=&quot;color: #c678dd&quot;&gt;=&lt;/span&gt; PF_INET,&lt;/div&gt;&lt;div&gt;&amp;nbsp; &amp;nbsp;.owner &lt;span style=&quot;color: #c678dd&quot;&gt;=&lt;/span&gt; THIS_MODULE,&lt;/div&gt;&lt;div&gt;&amp;nbsp; &amp;nbsp;.release &lt;span style=&quot;color: #c678dd&quot;&gt;=&lt;/span&gt; inet_release,&lt;/div&gt;&lt;div&gt;&amp;nbsp; &amp;nbsp;.bind &lt;span style=&quot;color: #c678dd&quot;&gt;=&lt;/span&gt; inet_bind,&lt;/div&gt;&lt;div&gt;&amp;nbsp; &amp;nbsp;.connect &lt;span style=&quot;color: #c678dd&quot;&gt;=&lt;/span&gt; inet_stream_connect,&lt;/div&gt;&lt;div&gt;&amp;nbsp; &amp;nbsp;.socketpair &lt;span style=&quot;color: #c678dd&quot;&gt;=&lt;/span&gt; sock_no_socketpair,&lt;/div&gt;&lt;div&gt;&amp;nbsp; &amp;nbsp;.accept &lt;span style=&quot;color: #c678dd&quot;&gt;=&lt;/span&gt; inet_accept,&lt;/div&gt;&lt;div&gt;&amp;nbsp; &amp;nbsp;.getname &lt;span style=&quot;color: #c678dd&quot;&gt;=&lt;/span&gt; inet_getname,&lt;/div&gt;&lt;div&gt;&amp;nbsp; &amp;nbsp;.poll &lt;span style=&quot;color: #c678dd&quot;&gt;=&lt;/span&gt; tcp_poll, &lt;span style=&quot;color: #7f848e ; font-style: italic&quot;&gt;//xj:select轮询调用&lt;/span&gt;&lt;/div&gt;&lt;div&gt;&amp;nbsp; &amp;nbsp;.ioctl &lt;span style=&quot;color: #c678dd&quot;&gt;=&lt;/span&gt; inet_ioctl,&lt;/div&gt;&lt;div&gt;&amp;nbsp; &amp;nbsp;.listen &lt;span style=&quot;color: #c678dd&quot;&gt;=&lt;/span&gt; inet_listen,&lt;/div&gt;&lt;div&gt;&amp;nbsp; &amp;nbsp;.shutdown &lt;span style=&quot;color: #c678dd&quot;&gt;=&lt;/span&gt; inet_shutdown,&lt;/div&gt;&lt;div&gt;&amp;nbsp; &amp;nbsp;.setsockopt &lt;span style=&quot;color: #c678dd&quot;&gt;=&lt;/span&gt; sock_common_setsockopt,&lt;/div&gt;&lt;div&gt;&amp;nbsp; &amp;nbsp;.getsockopt &lt;span style=&quot;color: #c678dd&quot;&gt;=&lt;/span&gt; sock_common_getsockopt,&lt;/div&gt;&lt;div&gt;&amp;nbsp; &amp;nbsp;.sendmsg &lt;span style=&quot;color: #c678dd&quot;&gt;=&lt;/span&gt; inet_sendmsg,&lt;/div&gt;&lt;div&gt;&amp;nbsp; &amp;nbsp;.recvmsg &lt;span style=&quot;color: #c678dd&quot;&gt;=&lt;/span&gt; inet_recvmsg,&lt;/div&gt;&lt;div&gt;&amp;nbsp; &amp;nbsp;.mmap &lt;span style=&quot;color: #c678dd&quot;&gt;=&lt;/span&gt; sock_no_mmap,&lt;/div&gt;&lt;div&gt;&amp;nbsp; &amp;nbsp;.sendpage &lt;span style=&quot;color: #c678dd&quot;&gt;=&lt;/span&gt; inet_sendpage,&lt;/div&gt;&lt;div&gt;&amp;nbsp; &amp;nbsp;.splice_read &lt;span style=&quot;color: #c678dd&quot;&gt;=&lt;/span&gt; tcp_splice_read,&lt;/div&gt;&lt;div&gt;&lt;span style=&quot;color: #c678dd&quot;&gt;#ifdef&lt;/span&gt; &lt;span style=&quot;color: #61afef&quot;&gt;CONFIG_COMPAT&lt;/span&gt;&lt;/div&gt;&lt;div&gt;&amp;nbsp; &amp;nbsp;.compat_setsockopt &lt;span style=&quot;color: #c678dd&quot;&gt;=&lt;/span&gt; compat_sock_common_setsockopt,&lt;/div&gt;&lt;div&gt;&amp;nbsp; &amp;nbsp;.compat_getsockopt &lt;span style=&quot;color: #c678dd&quot;&gt;=&lt;/span&gt; compat_sock_common_getsockopt,&lt;/div&gt;&lt;div&gt;&amp;nbsp; &amp;nbsp;.compat_ioctl &lt;span style=&quot;color: #c678dd&quot;&gt;=&lt;/span&gt; inet_compat_ioctl,&lt;/div&gt;&lt;div&gt;&lt;span style=&quot;color: #c678dd&quot;&gt;#endif&lt;/span&gt;&lt;/div&gt;&lt;div&gt;};&lt;/div&gt;&lt;/div&gt;&lt;/div&gt;&lt;div&gt;&lt;span style=&quot;color: #c678dd&quot;&gt;static&lt;/span&gt; &lt;span style=&quot;color: #c678dd&quot;&gt;const&lt;/span&gt; &lt;span style=&quot;color: #c678dd&quot;&gt;struct&lt;/span&gt; net_proto_family inet_family_ops &lt;span style=&quot;color: #c678dd&quot;&gt;=&lt;/span&gt; {&lt;/div&gt;&lt;div&gt;&amp;nbsp; &amp;nbsp;.family &lt;span style=&quot;color: #c678dd&quot;&gt;=&lt;/span&gt; PF_INET,&lt;/div&gt;&lt;div&gt;&amp;nbsp; &amp;nbsp;.create &lt;span style=&quot;color: #c678dd&quot;&gt;=&lt;/span&gt; inet_create,&lt;/div&gt;&lt;div&gt;&amp;nbsp; &amp;nbsp;.owner &lt;span style=&quot;color: #c678dd&quot;&gt;=&lt;/span&gt; THIS_MODULE,&lt;/div&gt;&lt;div&gt;};&lt;/div&gt;&lt;/div&gt;" style="align=left;rounded=0;whiteSpace=wrap;html=1;" parent="1" vertex="1">
                    <mxGeometry x="35" y="-380" width="440" height="650" as="geometry"/>
                </mxCell>
                <mxCell id="14" style="edgeStyle=orthogonalEdgeStyle;rounded=0;orthogonalLoop=1;jettySize=auto;html=1;exitX=0.5;exitY=1;exitDx=0;exitDy=0;entryX=0.5;entryY=0;entryDx=0;entryDy=0;" parent="1" source="12" target="2" edge="1">
                    <mxGeometry relative="1" as="geometry"/>
                </mxCell>
                <mxCell id="12" value="&lt;div style=&quot;background-color: rgb(40 , 44 , 52) ; font-family: &amp;#34;monaco&amp;#34; , &amp;#34;menlo&amp;#34; , &amp;#34;monaco&amp;#34; , &amp;#34;courier new&amp;#34; , monospace ; font-size: 13px ; line-height: 20px&quot;&gt;&lt;div style=&quot;font-family: &amp;#34;monaco&amp;#34; , &amp;#34;menlo&amp;#34; , &amp;#34;monaco&amp;#34; , &amp;#34;courier new&amp;#34; , monospace ; line-height: 20px&quot;&gt;&lt;div style=&quot;color: rgb(171 , 178 , 191)&quot;&gt;&lt;span style=&quot;color: #c678dd&quot;&gt;static&lt;/span&gt; &lt;span style=&quot;color: #c678dd&quot;&gt;struct&lt;/span&gt; inet_protosw inetsw_array&lt;span style=&quot;color: #c678dd&quot;&gt;[]&lt;/span&gt; &lt;span style=&quot;color: #c678dd&quot;&gt;=&lt;/span&gt;&lt;/div&gt;&lt;div style=&quot;color: rgb(171 , 178 , 191)&quot;&gt;    {&lt;/div&gt;&lt;div style=&quot;color: rgb(171 , 178 , 191)&quot;&gt;&amp;nbsp; {&lt;/div&gt;&lt;div style=&quot;color: rgb(171 , 178 , 191)&quot;&gt;&amp;nbsp; &amp;nbsp; &amp;nbsp;.type &lt;span style=&quot;color: #c678dd&quot;&gt;=&lt;/span&gt; SOCK_STREAM,&lt;/div&gt;&lt;div style=&quot;color: rgb(171 , 178 , 191)&quot;&gt;&amp;nbsp; &amp;nbsp; &amp;nbsp;.protocol &lt;span style=&quot;color: #c678dd&quot;&gt;=&lt;/span&gt; IPPROTO_TCP,&lt;/div&gt;&lt;div&gt;&lt;font color=&quot;#7f848e&quot;&gt;&lt;i&gt;&amp;nbsp; &amp;nbsp; &amp;nbsp;&lt;/i&gt;&lt;/font&gt;&lt;font color=&quot;#abb2bf&quot;&gt;.prot &lt;/font&gt;&lt;span style=&quot;color: rgb(198 , 120 , 221)&quot;&gt;=&lt;/span&gt; &lt;span style=&quot;color: rgb(198 , 120 , 221)&quot;&gt;&amp;amp;&lt;/span&gt;&lt;font color=&quot;#abb2bf&quot;&gt;tcp_prot,&lt;/font&gt;&lt;br&gt;&lt;/div&gt;&lt;div style=&quot;color: rgb(171 , 178 , 191)&quot;&gt;&amp;nbsp; &amp;nbsp; &amp;nbsp;.ops &lt;span style=&quot;color: #c678dd&quot;&gt;=&lt;/span&gt; &lt;span style=&quot;color: #c678dd&quot;&gt;&amp;amp;&lt;/span&gt;inet_stream_ops,&lt;/div&gt;&lt;div style=&quot;color: rgb(171 , 178 , 191)&quot;&gt;&amp;nbsp; &amp;nbsp; &amp;nbsp;.flags &lt;span style=&quot;color: #c678dd&quot;&gt;=&lt;/span&gt; INET_PROTOSW_PERMANENT &lt;span style=&quot;color: #c678dd&quot;&gt;|&lt;/span&gt;&lt;/div&gt;&lt;div style=&quot;color: rgb(171 , 178 , 191)&quot;&gt;&amp;nbsp; &amp;nbsp; &amp;nbsp; &amp;nbsp; &amp;nbsp; &amp;nbsp; &amp;nbsp; INET_PROTOSW_ICSK,&lt;/div&gt;&lt;div style=&quot;color: rgb(171 , 178 , 191)&quot;&gt;&amp;nbsp; },&lt;/div&gt;&lt;div style=&quot;color: rgb(171 , 178 , 191)&quot;&gt;&amp;nbsp; {&lt;/div&gt;&lt;div style=&quot;color: rgb(171 , 178 , 191)&quot;&gt;&amp;nbsp; &amp;nbsp; &amp;nbsp;.type &lt;span style=&quot;color: #c678dd&quot;&gt;=&lt;/span&gt; SOCK_DGRAM,&lt;/div&gt;&lt;div style=&quot;color: rgb(171 , 178 , 191)&quot;&gt;&amp;nbsp; &amp;nbsp; &amp;nbsp;.protocol &lt;span style=&quot;color: #c678dd&quot;&gt;=&lt;/span&gt; IPPROTO_UDP,&lt;/div&gt;&lt;div style=&quot;color: rgb(171 , 178 , 191)&quot;&gt;&amp;nbsp; &amp;nbsp; &amp;nbsp;.prot &lt;span style=&quot;color: #c678dd&quot;&gt;=&lt;/span&gt; &lt;span style=&quot;color: #c678dd&quot;&gt;&amp;amp;&lt;/span&gt;udp_prot,&lt;/div&gt;&lt;div style=&quot;color: rgb(171 , 178 , 191)&quot;&gt;&amp;nbsp; &amp;nbsp; &amp;nbsp;.ops &lt;span style=&quot;color: #c678dd&quot;&gt;=&lt;/span&gt; &lt;span style=&quot;color: #c678dd&quot;&gt;&amp;amp;&lt;/span&gt;inet_dgram_ops,&lt;/div&gt;&lt;div style=&quot;color: rgb(171 , 178 , 191)&quot;&gt;&amp;nbsp; &amp;nbsp; &amp;nbsp;.flags &lt;span style=&quot;color: #c678dd&quot;&gt;=&lt;/span&gt; INET_PROTOSW_PERMANENT,&lt;/div&gt;&lt;div style=&quot;color: rgb(171 , 178 , 191)&quot;&gt;&amp;nbsp; &amp;nbsp;},&lt;/div&gt;&lt;div style=&quot;color: rgb(171 , 178 , 191)&quot;&gt;&amp;nbsp; &amp;nbsp;{&lt;/div&gt;&lt;div style=&quot;color: rgb(171 , 178 , 191)&quot;&gt;&amp;nbsp; &amp;nbsp; &amp;nbsp;.type &lt;span style=&quot;color: #c678dd&quot;&gt;=&lt;/span&gt; SOCK_DGRAM,&lt;/div&gt;&lt;div style=&quot;color: rgb(171 , 178 , 191)&quot;&gt;&amp;nbsp; &amp;nbsp; &amp;nbsp;.protocol &lt;span style=&quot;color: #c678dd&quot;&gt;=&lt;/span&gt; IPPROTO_ICMP,&lt;/div&gt;&lt;div style=&quot;color: rgb(171 , 178 , 191)&quot;&gt;&amp;nbsp; &amp;nbsp; &amp;nbsp;.prot &lt;span style=&quot;color: #c678dd&quot;&gt;=&lt;/span&gt; &lt;span style=&quot;color: #c678dd&quot;&gt;&amp;amp;&lt;/span&gt;ping_prot,&lt;/div&gt;&lt;div style=&quot;color: rgb(171 , 178 , 191)&quot;&gt;&amp;nbsp; &amp;nbsp; &amp;nbsp;.ops &lt;span style=&quot;color: #c678dd&quot;&gt;=&lt;/span&gt; &lt;span style=&quot;color: #c678dd&quot;&gt;&amp;amp;&lt;/span&gt;inet_dgram_ops,&lt;/div&gt;&lt;div style=&quot;color: rgb(171 , 178 , 191)&quot;&gt;&amp;nbsp; &amp;nbsp; &amp;nbsp;.flags &lt;span style=&quot;color: #c678dd&quot;&gt;=&lt;/span&gt; INET_PROTOSW_REUSE,&lt;/div&gt;&lt;div style=&quot;color: rgb(171 , 178 , 191)&quot;&gt;&amp;nbsp; &amp;nbsp;},&lt;/div&gt;&lt;div style=&quot;color: rgb(171 , 178 , 191)&quot;&gt;&amp;nbsp; &amp;nbsp;{&lt;/div&gt;&lt;div style=&quot;color: rgb(171 , 178 , 191)&quot;&gt;&amp;nbsp; &amp;nbsp; &amp;nbsp;.type &lt;span style=&quot;color: #c678dd&quot;&gt;=&lt;/span&gt; SOCK_RAW,&lt;/div&gt;&lt;div style=&quot;color: rgb(171 , 178 , 191)&quot;&gt;&amp;nbsp; &amp;nbsp; &amp;nbsp;.protocol &lt;span style=&quot;color: #c678dd&quot;&gt;=&lt;/span&gt; IPPROTO_IP, &lt;span style=&quot;color: #7f848e ; font-style: italic&quot;&gt;/* wild card */&lt;/span&gt;&lt;/div&gt;&lt;div style=&quot;color: rgb(171 , 178 , 191)&quot;&gt;&amp;nbsp; &amp;nbsp; &amp;nbsp;.prot &lt;span style=&quot;color: #c678dd&quot;&gt;=&lt;/span&gt; &lt;span style=&quot;color: #c678dd&quot;&gt;&amp;amp;&lt;/span&gt;raw_prot,&lt;/div&gt;&lt;div style=&quot;color: rgb(171 , 178 , 191)&quot;&gt;&amp;nbsp; &amp;nbsp; &amp;nbsp;.ops &lt;span style=&quot;color: #c678dd&quot;&gt;=&lt;/span&gt; &lt;span style=&quot;color: #c678dd&quot;&gt;&amp;amp;&lt;/span&gt;inet_sockraw_ops,&lt;/div&gt;&lt;div style=&quot;color: rgb(171 , 178 , 191)&quot;&gt;&amp;nbsp; &amp;nbsp; &amp;nbsp;.flags &lt;span style=&quot;color: #c678dd&quot;&gt;=&lt;/span&gt; INET_PROTOSW_REUSE,&lt;/div&gt;&lt;div style=&quot;color: rgb(171 , 178 , 191)&quot;&gt;&amp;nbsp; &amp;nbsp;}};&lt;/div&gt;&lt;/div&gt;&lt;/div&gt;" style="align=left;rounded=0;whiteSpace=wrap;html=1;" parent="1" vertex="1">
                    <mxGeometry x="75" y="320" width="360" height="640" as="geometry"/>
                </mxCell>
                <mxCell id="20" style="edgeStyle=orthogonalEdgeStyle;rounded=0;orthogonalLoop=1;jettySize=auto;html=1;exitX=0.5;exitY=1;exitDx=0;exitDy=0;entryX=0.5;entryY=0;entryDx=0;entryDy=0;" edge="1" parent="1" source="15" target="19">
                    <mxGeometry relative="1" as="geometry"/>
                </mxCell>
                <mxCell id="15" value="&lt;div style=&quot;color: rgb(171 , 178 , 191) ; background-color: rgb(40 , 44 , 52) ; font-family: &amp;#34;monaco&amp;#34; , &amp;#34;menlo&amp;#34; , &amp;#34;monaco&amp;#34; , &amp;#34;courier new&amp;#34; , monospace ; font-size: 13px ; line-height: 20px&quot;&gt;&lt;div&gt;&lt;span style=&quot;color: #7f848e ; font-style: italic&quot;&gt;/* Register the socket-side information for inet_create. */&lt;/span&gt;&lt;/div&gt;&lt;div&gt;    &lt;span style=&quot;color: #c678dd&quot;&gt;for&lt;/span&gt; (r &lt;span style=&quot;color: #c678dd&quot;&gt;=&lt;/span&gt; &lt;span style=&quot;color: #c678dd&quot;&gt;&amp;amp;&lt;/span&gt;&lt;span style=&quot;color: #e06c75&quot;&gt;inetsw&lt;/span&gt;[&lt;span style=&quot;color: #d19a66&quot;&gt;0&lt;/span&gt;]; r &lt;span style=&quot;color: #c678dd&quot;&gt;&amp;lt;&lt;/span&gt; &lt;span style=&quot;color: #c678dd&quot;&gt;&amp;amp;&lt;/span&gt;&lt;span style=&quot;color: #e06c75&quot;&gt;inetsw&lt;/span&gt;[SOCK_MAX]; &lt;span style=&quot;color: #c678dd&quot;&gt;++&lt;/span&gt;r)&lt;/div&gt;&lt;div&gt;        &lt;span style=&quot;color: #61afef&quot;&gt;&amp;nbsp; &amp;nbsp;INIT_LIST_HEAD&lt;/span&gt;(r);&lt;/div&gt;&lt;/div&gt;" style="align=left;rounded=0;whiteSpace=wrap;html=1;" vertex="1" parent="1">
                    <mxGeometry x="10" y="1400" width="490" height="70" as="geometry"/>
                </mxCell>
                <mxCell id="18" value="Text" style="text;html=1;align=center;verticalAlign=middle;resizable=0;points=[];autosize=1;" vertex="1" parent="1">
                    <mxGeometry x="218" y="48" width="40" height="20" as="geometry"/>
                </mxCell>
                <mxCell id="19" value="&lt;div style=&quot;color: rgb(171 , 178 , 191) ; background-color: rgb(40 , 44 , 52) ; font-family: &amp;#34;monaco&amp;#34; , &amp;#34;menlo&amp;#34; , &amp;#34;monaco&amp;#34; , &amp;#34;courier new&amp;#34; , monospace ; font-size: 13px ; line-height: 20px&quot;&gt;&lt;div&gt;&lt;span style=&quot;color: rgb(198 , 120 , 221)&quot;&gt;for&lt;/span&gt; (q &lt;span style=&quot;color: rgb(198 , 120 , 221)&quot;&gt;=&lt;/span&gt; inetsw_array; q &lt;span style=&quot;color: rgb(198 , 120 , 221)&quot;&gt;&amp;lt;&lt;/span&gt; &lt;span style=&quot;color: rgb(198 , 120 , 221)&quot;&gt;&amp;amp;&lt;/span&gt;&lt;span style=&quot;color: rgb(224 , 108 , 117)&quot;&gt;inetsw_array&lt;/span&gt;[INETSW_ARRAY_LEN]; &lt;span style=&quot;color: rgb(198 , 120 , 221)&quot;&gt;++&lt;/span&gt;q)&lt;br&gt;&lt;/div&gt;&lt;div&gt;&lt;div style=&quot;font-family: &amp;#34;monaco&amp;#34; , &amp;#34;menlo&amp;#34; , &amp;#34;monaco&amp;#34; , &amp;#34;courier new&amp;#34; , monospace ; line-height: 20px&quot;&gt;&lt;div&gt;        &lt;span style=&quot;color: #61afef&quot;&gt;&amp;nbsp; &amp;nbsp;inet_register_protosw&lt;/span&gt;(q);&lt;/div&gt;&lt;/div&gt;&lt;/div&gt;&lt;/div&gt;" style="align=left;rounded=0;whiteSpace=wrap;html=1;" vertex="1" parent="1">
                    <mxGeometry x="-35" y="1510" width="580" height="50" as="geometry"/>
                </mxCell>
            </root>
        </mxGraphModel>
    </diagram>
</mxfile>